<?xml version="1.0" encoding="utf-8"?>
<!-- Generator: Adobe Illustrator 24.2.3, SVG Export Plug-In . SVG Version: 6.00 Build 0)  -->
<svg version="1.1" id="圖層_1" xmlns="http://www.w3.org/2000/svg" xmlns:xlink="http://www.w3.org/1999/xlink" x="0px" y="0px"
	 viewBox="0 0 50 50" style="enable-background:new 0 0 50 50;" xml:space="preserve">
<style type="text/css">
	.st0{fill:#F4CF40;}
	.st1{fill:#303131;}
	.st2{fill:none;stroke:#303131;stroke-width:2;stroke-miterlimit:10;}
</style>
<g>
	<g>
		<path class="st0" d="M8.45,10.29H41.6c1.19,0,1.95,1.27,1.38,2.32l-6.93,12.9c-0.27,0.51-0.81,0.83-1.38,0.83H24.41
			c-1.23,0-1.99,1.36-1.33,2.4l0,0c0.31,0.49,0.32,1.12,0.03,1.62l-1.75,3.02c-0.61,1.05-2.13,1.04-2.73-0.02l-6.25-11.1
			c-0.59-1.05,0.17-2.34,1.37-2.34h17.45c0.62,0,1.17-0.36,1.43-0.92l0.17-0.37c0.48-1.04-0.28-2.23-1.43-2.23h-21.2
			c-0.56,0-1.08-0.3-1.36-0.79l-1.7-2.97C6.48,11.6,7.24,10.29,8.45,10.29z"/>
		<path class="st1" d="M28.32,28.64h3.22c1.22,0,1.97,1.32,1.35,2.37L26.39,42c-0.62,1.05-2.15,1.02-2.73-0.05l-1.83-3.35
			c-0.28-0.51-0.25-1.14,0.07-1.63l5.12-7.63C27.31,28.9,27.8,28.64,28.32,28.64z"/>
	</g>
	<path class="st2" d="M43.45,48.87H6.6c-3.01,0-5.45-2.44-5.45-5.45V6.57c0-3.01,2.44-5.45,5.45-5.45h36.85
		c3.01,0,5.45,2.44,5.45,5.45v36.85C48.89,46.43,46.45,48.87,43.45,48.87z"/>
</g>
</svg>
